<?xml version="1.0" encoding="UTF-8"?>
<svg width="158px" height="91px" viewBox="0 0 158 91" version="1.1" xmlns="http://www.w3.org/2000/svg" xmlns:xlink="http://www.w3.org/1999/xlink">
    <title>mogmog-logo</title>
    <g id="Page-1" stroke="none" stroke-width="1" fill="none" fill-rule="evenodd">
        <g id="mogmog-logo" fill-rule="nonzero">
            <g id="Group" transform="translate(0.000000, 37.000000)" fill="#E95174">
                <path d="M11.99,6.57 C13.56,3.7 17.04,0.9 22.16,0.9 C27.07,0.9 30.49,3.02 32.4,6.7 C34.65,3.15 38.2,0.9 43.25,0.9 C52.46,0.9 55.6,8.41 55.6,14.82 L55.6,30.25 C55.6,35.64 51.85,36.53 50,36.53 C48.15,36.53 44.4,35.64 44.4,30.25 L44.4,17.29 C44.4,13.4 43.51,10.12 39.55,10.12 C35.73,10.12 33.89,13.67 33.89,17.49 L33.89,30.25 C33.89,35.64 30.14,36.53 28.29,36.53 C26.45,36.53 22.69,35.64 22.69,30.25 L22.69,16.47 C22.69,12.58 21.19,10.12 17.84,10.12 C14.29,10.12 12.24,13.33 12.24,17.42 L12.24,30.25 C12.24,35.64 8.49,36.53 6.57,36.53 C4.73,36.53 0.97,35.64 0.97,30.25 L0.97,7.19 C0.97,2 4.59,1.18 6.36,1.18 C8.13,1.18 11.62,2 11.82,6.57 L11.99,6.57 Z" id="Path"></path>
                <path d="M82.2,36.94 C71.96,36.94 63.36,29.84 63.36,18.72 C63.36,7.6 71.96,0.77 82.2,0.77 C92.51,0.77 101.11,7.6 101.11,18.72 C101.11,29.84 92.51,36.94 82.2,36.94 Z M82.2,10.05 C76.94,10.05 74.21,14.35 74.21,18.72 C74.21,23.09 77.01,27.52 82.26,27.52 C87.51,27.52 90.31,23.08 90.31,18.72 C90.31,14.36 87.46,10.05 82.2,10.05 Z" id="Shape"></path>
                <path d="M142.65,3.15 C141.46,1.78 139.99,1.18 138.92,1.18 C137.21,1.18 134,2.07 133.66,6.23 L133.52,6.23 C131.13,2.61 126.9,0.91 122.67,0.91 C112.43,0.91 106.49,9.31 106.49,18.72 C106.49,28.13 112.43,36.19 122.73,36.19 C127.23,36.19 130.92,34.42 133.04,31.69 L133.25,31.69 L133.25,33.74 C133.25,37.83 131.57,40.92 128.45,42.33 C126.68,43.13 125.47,44.8 125.47,46.74 C125.47,49.89 128.48,52.15 131.52,51.32 C139.4,49.15 144.24,43.05 144.24,32.66 L144.24,11.62 C140.1,11.59 138.37,6.94 142.65,3.15 Z M125.34,27.32 C120.29,27.32 117.35,23.16 117.35,18.65 C117.35,13.94 120.28,10.05 125.34,10.05 C130.4,10.05 133.6,14.01 133.6,18.65 C133.6,23.29 130.46,27.32 125.34,27.32 Z" id="Shape"></path>
            </g>
            <path d="M145.15,46.47 C142.53,46.47 142.16,44.99 142.16,44.24 C142.16,43.46 142.36,42.68 143.75,41.39 L150.14,35.58 C151.12,34.69 151.76,33.74 151.76,32.54 C151.76,31.14 150.78,30.17 149.3,30.17 C148.18,30.17 147.37,30.76 146.87,31.65 C146.42,32.46 145.64,33.19 144.66,33.19 C143.4,33.19 142.54,32.24 142.54,31.07 C142.54,30.6 142.74,30.04 142.93,29.7 C144.21,27.52 146.67,26.18 149.55,26.18 C153.18,26.18 156.7,28.11 156.7,32.24 C156.7,35.06 155.05,36.71 153.24,38.33 L148.66,42.41 L154.75,42.41 C156.71,42.41 157.01,43.78 157.01,44.45 C157.01,45.12 156.7,46.49 154.75,46.49 L145.15,46.49 L145.15,46.47 Z" id="Path" fill="#E95174"></path>
            <path d="M105.82,33.68 C104.16,33.68 102.82,32.34 102.82,30.68 C102.78,30.14 101.31,28.17 98.27,26.95 C96.83,26.38 93.22,25.29 90.67,27.58 C89.44,28.69 87.54,28.59 86.43,27.35 C85.32,26.12 85.42,24.22 86.66,23.11 C90.35,19.79 95.76,19.24 101.14,21.64 C104.68,23.22 108.82,26.53 108.82,30.67 C108.82,32.34 107.48,33.68 105.82,33.68 Z" id="Path" fill="#F6BB31"></path>
            <g id="Group" transform="translate(39.000000, 0.000000)" fill="#F6BB31">
                <path d="M5.22,34.51 C6.46,34.51 7.57,33.74 7.98,32.57 C13.13,18.26 26.82,8 42.88,8 C58.94,8 72.63,18.26 77.77,32.57 C78.19,33.74 79.3,34.51 80.53,34.51 L82.75,34.51 C84.77,34.51 86.2,32.52 85.55,30.6 C79.51,12.83 62.67,0 42.88,0 C23.09,0 6.24,12.83 0.2,30.6 C-0.45,32.52 0.97,34.51 3,34.51 L5.22,34.51 L5.22,34.51 Z" id="Path"></path>
                <path d="M65.06,75.39 C64.47,75.39 63.91,75.57 63.42,75.9 C57.54,79.84 50.47,82.14 42.88,82.14 C35.28,82.14 28.22,79.84 22.34,75.9 C21.85,75.57 21.28,75.39 20.7,75.39 L17.09,75.39 C14.26,75.39 13.07,78.96 15.31,80.7 C22.94,86.62 32.51,90.14 42.88,90.14 C53.25,90.14 62.83,86.61 70.45,80.7 C72.69,78.97 71.5,75.39 68.67,75.39 L65.06,75.39 Z" id="Path"></path>
            </g>
            <path d="M59.15,33.69 C57.49,33.69 56.15,32.34 56.15,30.69 C56.15,26.56 60.29,23.24 63.83,21.66 C69.21,19.26 74.62,19.81 78.31,23.13 C79.54,24.24 79.64,26.13 78.53,27.37 C77.42,28.6 75.53,28.7 74.29,27.59 C71.74,25.3 68.13,26.38 66.69,26.96 C63.64,28.18 62.18,30.15 62.13,30.69 C62.15,32.35 60.8,33.69 59.15,33.69 Z" id="Path" fill="#F6BB31"></path>
        </g>
    </g>
</svg>